<?xml version="1.0" standalone="no"?>
<!DOCTYPE svg PUBLIC "-//W3C//DTD SVG 20010904//EN"
 "http://www.w3.org/TR/2001/REC-SVG-20010904/DTD/svg10.dtd">
<svg version="1.0" xmlns="http://www.w3.org/2000/svg"
 width="363.000000pt" height="278.000000pt" viewBox="0 0 363.000000 278.000000"
 preserveAspectRatio="xMidYMid meet">

<g transform="translate(0.000000,278.000000) scale(0.100000,-0.100000)"
fill="#000000" stroke="none">
<path d="M0 1390 l0 -1390 1815 0 1815 0 0 1390 0 1390 -1815 0 -1815 0 0
-1390z m2160 1120 c0 -5 -2 -10 -4 -10 -3 0 -8 5 -11 10 -3 6 -1 10 4 10 6 0
11 -4 11 -10z m-374 -45 c2 -5 -29 -32 -69 -60 -115 -80 -187 -180 -242 -336
-21 -58 -28 -100 -32 -194 -6 -134 4 -200 42 -282 14 -28 25 -55 25 -59 0 -16
106 -147 153 -190 77 -70 188 -139 277 -173 44 -17 83 -31 87 -31 5 0 22 37
40 82 17 46 59 154 92 241 l62 157 -28 24 c-15 13 -25 27 -21 31 3 4 16 -3 28
-15 l22 -22 33 36 c38 42 71 56 132 56 54 0 110 -29 138 -71 23 -34 47 -37 75
-9 10 10 22 16 24 11 7 -11 -23 -37 -51 -45 -22 -7 -23 -12 -23 -109 0 -123
-17 -201 -58 -267 -25 -41 -28 -50 -15 -54 17 -7 77 25 137 73 21 17 43 31 47
31 17 0 9 -35 -20 -97 -113 -239 -321 -408 -587 -479 -95 -25 -341 -26 -434
-1 -186 51 -327 133 -464 272 -143 145 -213 319 -223 556 -4 98 -2 144 12 205
44 206 123 352 256 480 136 129 286 204 474 238 88 16 107 16 111 1z m601 -89
c-8 -9 -15 -10 -23 -2 -15 15 6 38 23 24 9 -7 9 -13 0 -22z m-663 -187 c-3 -5
-10 -7 -15 -3 -5 3 -7 10 -3 15 3 5 10 7 15 3 5 -3 7 -10 3 -15z m1184 -115
c42 -9 26 -39 -40 -75 l-63 -34 43 -5 c23 -4 48 -12 54 -18 9 -9 -3 -12 -54
-12 -88 0 -104 17 -53 57 21 15 47 36 58 45 l22 17 -30 1 c-16 0 -37 5 -45 10
-34 22 30 31 108 14z m-151 -71 c2 -6 -16 -26 -41 -45 -25 -18 -45 -36 -46
-40 0 -5 18 -8 41 -8 24 0 38 -4 34 -10 -8 -13 -102 -13 -110 0 -3 5 11 27 31
50 l36 40 -25 0 c-27 0 -42 12 -30 24 12 11 106 2 110 -11z m259 -8 c41 -17
38 -26 -16 -56 -48 -27 -51 -39 -10 -39 28 0 38 -9 24 -22 -6 -7 -75 10 -88
22 -4 5 11 21 34 36 26 17 37 30 29 32 -23 7 -39 24 -33 33 7 12 19 11 60 -6z
m-406 -72 c0 -4 -10 -17 -22 -30 l-21 -23 22 0 c12 0 19 -4 16 -10 -7 -11 -65
-14 -65 -3 0 4 10 17 22 30 l21 23 -21 0 c-12 0 -22 5 -22 10 0 6 16 10 35 10
19 0 35 -3 35 -7z m-98 -115 c-15 -15 -26 -4 -18 18 5 13 9 15 18 6 9 -9 9
-15 0 -24z m-32 -23 c0 -8 -4 -15 -10 -15 -5 0 -10 7 -10 15 0 8 5 15 10 15 6
0 10 -7 10 -15z m-673 -33 c-13 -16 -30 -1 -21 21 4 13 9 14 19 4 9 -9 10 -16
2 -25z m643 -2 c0 -5 -4 -10 -10 -10 -5 0 -10 5 -10 10 0 6 5 10 10 10 6 0 10
-4 10 -10z m-330 -270 c15 0 12 -28 -4 -37 -8 -4 -16 -17 -18 -28 -2 -13 -10
-19 -23 -17 -11 2 -31 4 -45 5 -19 2 -25 8 -27 27 -1 14 -3 34 -5 45 -2 14 3
21 19 23 12 2 27 10 34 18 11 13 15 12 36 -10 13 -14 28 -26 33 -26z m-460 16
c0 -3 -4 -8 -10 -11 -5 -3 -10 -1 -10 4 0 6 5 11 10 11 6 0 10 -2 10 -4z m217
-60 c-8 -9 -14 -10 -23 -2 -14 13 2 27 22 19 10 -4 10 -8 1 -17z m93 4 c0 -5
-4 -10 -10 -10 -5 0 -10 5 -10 10 0 6 5 10 10 10 6 0 10 -4 10 -10z m-280 -20
c0 -5 -4 -10 -10 -10 -5 0 -10 5 -10 10 0 6 5 10 10 10 6 0 10 -4 10 -10z
m-653 -641 c61 -16 117 -70 133 -129 31 -116 -11 -237 -104 -295 -45 -27 -57
-30 -132 -30 -55 0 -87 4 -96 13 -10 10 -14 65 -16 212 l-4 200 -22 0 c-30 0
-76 -36 -76 -60 0 -25 17 -35 35 -20 23 19 47 4 43 -27 -6 -58 -97 -64 -118
-9 -22 58 23 122 100 144 49 14 202 14 257 1z m1820 0 c58 -22 55 -30 -73
-235 -51 -84 -94 -159 -94 -168 0 -23 116 -23 148 0 32 22 25 48 -13 49 -25 0
-30 4 -30 25 0 32 38 52 74 39 32 -13 41 -26 41 -62 0 -40 -26 -74 -68 -89
-53 -18 -219 -16 -256 3 -27 15 -31 14 -66 -5 -31 -16 -44 -19 -67 -11 l-28
10 -5 127 c-3 69 -8 130 -12 134 -5 4 -17 -1 -28 -11 -18 -16 -20 -31 -20
-126 0 -84 -3 -111 -16 -123 -18 -18 -47 -20 -75 -6 -17 10 -19 22 -19 135 0
68 -4 126 -8 129 -5 3 -18 -2 -30 -10 -20 -14 -22 -24 -22 -130 0 -112 0 -115
-25 -126 -19 -8 -31 -8 -50 0 -25 12 -25 12 -25 147 0 128 -1 135 -20 135 -28
0 -25 15 5 28 41 19 92 15 108 -7 13 -20 13 -20 43 -1 16 11 43 20 61 20 30 0
63 -21 63 -40 0 -5 16 2 36 15 44 30 87 32 114 5 18 -18 20 -33 20 -140 0
-116 3 -128 26 -112 18 12 224 349 224 366 0 12 -10 16 -47 16 -59 0 -97 -18
-101 -48 -3 -18 1 -22 26 -22 36 0 46 -20 26 -49 -32 -45 -104 -15 -104 44 0
42 25 72 75 90 47 17 172 19 212 4z m-1533 -145 c9 -8 16 -19 16 -24 0 -5 11
2 25 15 44 45 98 25 87 -31 -5 -28 -6 -28 -30 -13 -14 9 -26 8 -50 -5 l-32
-17 0 -109 c0 -108 -1 -111 -25 -122 -19 -8 -31 -8 -50 0 -25 12 -25 12 -25
147 0 128 -1 135 -20 135 -27 0 -25 14 3 28 33 16 83 14 101 -4z m374 0 c17
-12 22 -24 20 -47 -3 -27 -13 -38 -73 -74 -80 -48 -86 -69 -35 -115 34 -32 65
-35 98 -12 13 9 26 13 29 10 18 -18 -79 -76 -127 -76 -14 0 -43 9 -66 19 -110
50 -107 232 4 291 45 24 119 26 150 4z m290 -17 c26 -26 27 -33 30 -137 3 -89
6 -108 18 -103 23 9 16 -14 -12 -36 -33 -26 -68 -27 -91 -3 -17 17 -19 17 -51
-1 -65 -38 -132 -1 -132 73 0 43 36 83 90 101 46 16 70 37 70 64 0 27 -18 45
-46 45 -27 0 -41 -17 -25 -33 17 -17 13 -45 -8 -52 -68 -21 -80 78 -12 104 14
6 52 9 84 8 47 -3 63 -8 85 -30z"/>
<path d="M1510 2349 c0 -5 5 -7 10 -4 6 3 10 8 10 11 0 2 -4 4 -10 4 -5 0 -10
-5 -10 -11z"/>
<path d="M1533 2283 c-41 -53 -73 -108 -73 -124 1 -8 10 5 21 27 11 23 36 60
56 83 19 23 33 44 30 47 -2 3 -18 -12 -34 -33z"/>
<path d="M1324 2288 l-19 -23 25 20 c14 11 27 21 29 22 2 2 0 3 -6 3 -5 0 -18
-10 -29 -22z"/>
<path d="M1137 1956 c-4 -10 -7 -25 -6 -34 0 -11 4 -9 10 7 5 13 8 29 6 35 -2
5 -6 2 -10 -8z"/>
<path d="M1371 1874 c0 -11 3 -14 6 -6 3 7 2 16 -1 19 -3 4 -6 -2 -5 -13z"/>
<path d="M1011 1818 c-17 -87 -24 -185 -12 -168 6 8 11 36 11 62 0 26 5 70 11
98 6 28 9 54 6 56 -3 3 -10 -18 -16 -48z"/>
<path d="M1360 1735 c0 -14 4 -25 9 -25 4 0 6 11 3 25 -2 14 -6 25 -8 25 -2 0
-4 -11 -4 -25z"/>
<path d="M2325 1706 c-16 -7 -40 -25 -53 -38 l-23 -25 32 -7 c18 -3 48 -22 68
-44 l36 -37 29 32 c19 23 40 35 67 39 46 8 46 17 -3 57 -43 35 -108 44 -153
23z"/>
<path d="M1390 1622 c0 -22 37 -86 66 -112 l28 -25 -25 35 c-15 19 -36 53 -47
75 -12 22 -21 34 -22 27z"/>
<path d="M2237 1613 c-15 -14 -6 -87 14 -123 25 -44 83 -80 128 -80 72 0 144
57 157 124 10 54 -2 76 -40 76 -44 0 -83 -32 -97 -80 -13 -43 -29 -44 -29 -3
0 36 -60 93 -97 93 -16 0 -33 -3 -36 -7z"/>
<path d="M1327 1570 c3 -11 9 -20 15 -20 5 0 4 9 -2 20 -6 11 -12 20 -14 20
-2 0 -2 -9 1 -20z"/>
<path d="M2206 1532 c-3 -5 -39 -96 -80 -201 l-73 -191 37 0 c70 0 131 29 198
96 66 66 85 65 27 -3 -33 -39 -34 -40 -9 -35 16 3 36 -3 54 -16 16 -12 30 -18
32 -13 2 4 16 14 33 22 44 21 96 127 102 213 l6 67 -32 -30 c-32 -30 -85 -51
-126 -51 -29 1 -97 34 -118 58 -11 11 -25 37 -32 58 -7 20 -15 32 -19 26z"/>
<path d="M1040 1297 c0 -25 40 -130 67 -176 31 -53 121 -151 137 -150 6 0 1 7
-12 16 -30 21 -103 116 -130 168 -11 22 -28 66 -37 98 -16 55 -25 71 -25 44z"/>
<path d="M2240 1171 c-14 -10 -45 -25 -69 -33 l-43 -15 34 -6 c42 -6 188 9
200 21 13 13 -19 42 -47 42 -24 0 -49 -19 -58 -42 -2 -7 -8 -10 -12 -6 -4 4 0
19 9 33 20 30 19 30 -14 6z"/>
<path d="M2414 1165 c-15 -11 -16 -14 -3 -15 8 0 24 7 35 15 15 11 16 14 3 15
-8 0 -24 -7 -35 -15z"/>
<path d="M2435 1120 c-70 -33 -178 -52 -274 -48 -52 1 -86 -1 -81 -6 5 -5 64
-6 132 -4 103 4 135 10 196 33 39 15 72 31 72 36 0 5 -1 9 -2 8 -2 0 -21 -9
-43 -19z"/>
<path d="M2520 1095 c-13 -14 -21 -27 -18 -30 2 -3 15 6 28 20 13 14 21 27 18
30 -2 3 -15 -6 -28 -20z"/>
<path d="M2000 1090 c0 -4 11 -10 25 -12 13 -3 22 -2 20 2 -7 11 -45 20 -45
10z"/>
<path d="M2370 943 c-36 -30 -102 -73 -148 -96 -45 -22 -80 -42 -77 -45 18
-18 271 144 289 186 7 16 9 18 -64 -45z"/>
<path d="M1290 986 c0 -2 8 -10 18 -17 15 -13 16 -12 3 4 -13 16 -21 21 -21
13z"/>
<path d="M1345 890 c3 -5 11 -10 16 -10 6 0 7 5 4 10 -3 6 -11 10 -16 10 -6 0
-7 -4 -4 -10z"/>
<path d="M1595 860 c3 -5 8 -10 11 -10 2 0 4 5 4 10 0 6 -5 10 -11 10 -5 0 -7
-4 -4 -10z"/>
<path d="M1675 790 c11 -5 34 -8 50 -8 l30 0 -30 8 c-16 4 -39 8 -50 8 l-20 1
20 -9z"/>
<path d="M2042 1496 c-32 -18 -37 -25 -13 -19 11 3 26 11 32 19 13 16 12 16
-19 0z"/>
<path d="M2080 1476 c0 -2 7 -7 16 -10 8 -3 12 -2 9 4 -6 10 -25 14 -25 6z"/>
<path d="M947 753 c-4 -3 -7 -93 -7 -200 l0 -193 24 0 c35 0 71 33 84 78 15
48 16 194 2 244 -15 53 -78 97 -103 71z"/>
<path d="M1580 584 c-13 -32 -13 -74 -1 -74 6 0 22 10 36 23 21 18 25 28 20
50 -9 35 -42 36 -55 1z"/>
<path d="M1867 482 c-36 -40 -10 -133 28 -102 20 17 21 120 2 120 -8 0 -21 -8
-30 -18z"/>
</g>
</svg>
